<?xml version="1.0" standalone="no"?><!DOCTYPE svg PUBLIC "-//W3C//DTD SVG 1.1//EN" "http://www.w3.org/Graphics/SVG/1.1/DTD/svg11.dtd"><svg t="1564298543282" class="icon" viewBox="0 0 1024 1024" version="1.1" xmlns="http://www.w3.org/2000/svg" p-id="1954" width="16" height="16" xmlns:xlink="http://www.w3.org/1999/xlink"><defs><style type="text/css"></style></defs><path d="M213.08919 510.806825c0-164.93547 133.706211-298.640658 298.640658-298.640658 164.934446 0 298.640658 133.705188 298.640658 298.640658 0 164.933423-133.706211 298.640658-298.640658 298.640658C346.795401 809.447483 213.08919 675.740248 213.08919 510.806825zM845.5047 510.806825c0-184.338379-149.436474-333.774853-333.774853-333.774853s-333.774853 149.436474-333.774853 333.774853 149.436474 333.774853 333.774853 333.774853S845.5047 695.145204 845.5047 510.806825z" p-id="1955"></path><path d="M494.16275 651.343605c0 9.701966 7.865131 17.567098 17.567098 17.567098 9.701966 0 17.567098-7.865131 17.567098-17.567098l0-210.80517c0-9.701966-7.865131-17.567098-17.567098-17.567098-9.701966 0-17.567098 7.865131-17.567098 17.567098L494.16275 651.343605z" p-id="1956"></path><path d="M494.16275 352.702947c0-9.701966 7.797593-17.567098 17.567098-17.567098 9.701966 0 17.567098 7.795547 17.567098 17.567098 0 9.701966-7.797593 17.567098-17.567098 17.567098C502.027881 370.270045 494.16275 362.471428 494.16275 352.702947z" p-id="1957"></path></svg>