<?xml version="1.0" standalone="no"?><!DOCTYPE svg PUBLIC "-//W3C//DTD SVG 1.1//EN" "http://www.w3.org/Graphics/SVG/1.1/DTD/svg11.dtd"><svg t="1554827617356" class="icon" style="" viewBox="0 0 1024 1024" version="1.1" xmlns="http://www.w3.org/2000/svg" p-id="2564" xmlns:xlink="http://www.w3.org/1999/xlink" width="16" height="16"><defs><style type="text/css"></style></defs><path d="M105.429191 308.712037H54.199413c-27.288506 0-50.414203 22.667256-50.414203 50.671053v305.231773c0 27.65178 22.566972 50.671053 50.414203 50.671053h51.229778V308.712037z m813.146735 0h51.224661c27.90249 0 50.414203 23.024389 50.414203 50.671053v305.231773c0 28.055986-23.12058 50.671053-50.414203 50.671053h-51.224661V308.712037z m-101.645005-152.463414H207.069079c-28.05087 0-50.819432 22.768563-50.819432 50.819433v609.862865c0 28.104081 22.768563 50.819432 50.819432 50.819432h609.861842c28.105105 0 50.826596-22.715351 50.826595-50.819432V207.068056c-0.00614-28.05087-22.721491-50.819432-50.826595-50.819433zM334.1238 308.712037c42.134633 0 76.235288 34.100656 76.235289 76.235289 0 42.129516-34.100656 76.229149-76.235289 76.229148-42.129516 0-76.229149-34.100656-76.229149-76.229148-0.001023-42.134633 34.099632-76.235288 76.229149-76.235289zM207.069079 810.775734s41.624003-253.139348 124.616182-253.139347 73.082482 70.697155 135.440716 70.697155c62.411445 0 88.179318-217.974453 172.033121-217.974453 83.854826 0 177.772846 400.417669 177.772846 400.417668H207.069079z m0 0" p-id="2565"></path></svg>