<?xml version="1.0" standalone="no"?><!DOCTYPE svg PUBLIC "-//W3C//DTD SVG 1.1//EN" "http://www.w3.org/Graphics/SVG/1.1/DTD/svg11.dtd"><svg t="1560088222207" class="icon" style="" viewBox="0 0 1024 1024" version="1.1" xmlns="http://www.w3.org/2000/svg" p-id="1638" xmlns:xlink="http://www.w3.org/1999/xlink" width="16" height="16"><defs><style type="text/css"></style></defs><path d="M242.09408 378.01984h348.28288c17.33632 0 31.4368-12.01152 31.4368-26.75712 0-14.4896-14.39744-26.73664-31.4368-26.73664H242.09408c-17.33632 0-31.42656 11.99104-31.42656 26.73664-0.01024 14.51008 14.37696 26.75712 31.42656 26.75712zM242.09408 508.928H422.8096c17.12128 0 30.9248-11.91936 31.42656-27.20768 0-15.0016-14.10048-27.20768-31.42656-27.20768H242.09408c-17.33632 0-31.42656 12.20608-31.42656 27.20768S224.75776 508.928 242.09408 508.928zM650.24 668.2112a82.45248 82.45248 0 1 0 140.6976 58.30656 79.6672 79.6672 0 0 0-5.74464-29.53216l192.27648-239.43168-239.50336 192.22528a79.616 79.616 0 0 0-29.47072-5.6832A81.80736 81.80736 0 0 0 650.24 668.2112zM687.55456 705.536a29.37856 29.37856 0 0 1 20.9408-8.66304c15.81056 0 29.60384 13.75232 29.5936 29.5936A29.5936 29.5936 0 1 1 687.55456 705.536z"  p-id="1639"></path><path d="M987.01312 726.51776a278.03648 278.03648 0 0 0-39.936-143.24736l-35.84 44.82048a225.3312 225.3312 0 0 1-202.7008 324.096C584.0384 952.19712 482.816 850.944 482.816 726.51776S584.05888 500.8384 708.49536 500.8384A225.8432 225.8432 0 0 1 806.912 523.81696l44.82048-35.84a278.20032 278.20032 0 1 0 135.28064 238.592z"  p-id="1640"></path><path d="M429.11744 896.24576H133.66272c-18.35008 0-41.78944-18.16576-41.78944-32.39936a107.37664 107.37664 0 0 0-0.53248-11.79648c0-0.14336 0-0.26624 0.0512-0.4096V171.85792a108.09344 108.09344 0 0 0 41.78944 8.54016h621.03552v223.95904a324.608 324.608 0 0 1 54.41536 12.288V158.34112a35.9424 35.9424 0 0 0-0.48128-5.55008v-0.08192c0-0.18432-0.06144-0.3584-0.06144-0.54272v-0.19456c-0.26624-7.72096-4.61824-14.67392-11.264-19.456-0.29696-0.24576-0.62464-0.43008-0.94208-0.6656-0.84992-0.57344-1.6896-1.13664-2.60096-1.62816a24.94464 24.94464 0 0 0-3.19488-1.49504c-0.93184-0.38912-1.88416-0.7168-2.8672-1.024l-0.54272-0.14336a34.9184 34.9184 0 0 0-9.97376-1.56672h-58.66496V44.29824c0-13.95712-12.20608-25.33376-27.20768-25.33376-0.70656 0-1.36192 0.14336-2.048 0.19456s-1.4336-0.19456-2.17088-0.19456H133.19168c-41.984 0-77.30176 23.28576-89.9584 55.296a34.1504 34.1504 0 0 0-6.2464 19.79392v758.0672a35.584 35.584 0 0 0 1.024 7.92576v4.74112c0 44.77952 43.63264 82.61632 95.232 82.61632h334.2336a327.17824 327.17824 0 0 1-38.35904-51.15904zM123.8016 72.43776h539.82208V125.952H123.8016c-17.8688 0-32.39936-12.01152-32.39936-26.76736 0-14.4896 14.82752-26.74688 32.39936-26.74688z"  p-id="1641"></path></svg>
