<?xml version="1.0" standalone="no"?><!DOCTYPE svg PUBLIC "-//W3C//DTD SVG 1.1//EN" "http://www.w3.org/Graphics/SVG/1.1/DTD/svg11.dtd"><svg class="icon" width="16px" height="16.00px" viewBox="0 0 1024 1024" version="1.1" xmlns="http://www.w3.org/2000/svg"><path  d="M371.257458 609.678222h281.827555c25.713778 0 49.493333-11.093333 66.389334-28.103111h0.398222a94.208 94.208 0 0 0 0-133.518222h-0.398222a95.630222 95.630222 0 0 0-66.389334-27.761778h-281.827555c-26.225778 0-49.493333 10.979556-67.015111 27.761778a96.256 96.256 0 0 0-27.932445 66.730667c0 25.827556 10.979556 49.436444 27.932445 66.787555 17.521778 16.952889 40.96 28.103111 67.015111 28.103111z m-31.630222-126.122666a45.340444 45.340444 0 0 1 31.630222-12.856889h281.827555c11.889778 0 22.869333 5.063111 30.72 12.856889h0.170667a44.942222 44.942222 0 0 1 12.913778 31.232 45.966222 45.966222 0 0 1-12.913778 31.630222h-0.170667a43.52 43.52 0 0 1-30.72 12.458666h-281.827555a45.511111 45.511111 0 0 1-31.630222-12.458666 44.828444 44.828444 0 0 1-12.458667-31.630222 44.885333 44.885333 0 0 1 12.458667-31.232zM971.890347 769.649778l52.224-32.881778-19.456-47.217778-59.847111 13.767111a146.887111 146.887111 0 0 0-30.947556-31.345777l13.539556-59.904-47.104-19.683556-32.369778 51.768889a150.357333 150.357333 0 0 0-44.032-0.227556l-32.085334-51.996444-47.331555 19.342222 12.970667 59.790222c-11.776 8.533333-22.357333 19.000889-31.459556 31.004445l-59.278222-13.994667-19.740445 47.217778 51.313778 33.109333a145.066667 145.066667 0 0 0-0.170667 44.088889l-51.825777 32.085333 19.399111 47.331556 59.733333-13.027556c8.647111 11.776 19.000889 22.129778 31.061333 31.118223l-13.994666 59.676444 47.160889 19.569778 33.28-51.541333c14.734222 2.218667 29.582222 2.104889 43.918222-0.113778l32.824889 52.224 47.274666-19.569778-13.880888-60.017778c11.719111-8.419556 22.129778-18.773333 31.004444-30.663111l60.302222 13.539556 19.626667-47.104-52.280889-32.654223c2.218667-14.563556 2.218667-29.354667 0.170667-43.690666z m-59.107556 58.140444a94.776889 94.776889 0 1 1-174.876444-73.272889 94.776889 94.776889 0 0 1 174.876444 73.272889zM572.644124 899.128889h-441.912888v-552.903111h762.595555v178.517333a273.464889 273.464889 0 0 1 84.48 37.717333v-216.234666h4.039111a41.984 41.984 0 0 0 42.268445-41.699556v-190.293333a41.927111 41.927111 0 0 0-42.154667-42.040889H41.757013a41.927111 41.927111 0 0 0-41.642666 42.040889v190.293333c0 23.210667 18.773333 41.699556 41.642666 41.699556h4.835556v594.887111c0 23.210667 19.114667 41.984 42.040889 41.984h540.330666a274.318222 274.318222 0 0 1-56.32-83.968zM84.196124 262.257778v-106.040889h855.836445v106.040889H84.196124z" /></svg>
