<?xml version="1.0" standalone="no"?><!DOCTYPE svg PUBLIC "-//W3C//DTD SVG 1.1//EN" "http://www.w3.org/Graphics/SVG/1.1/DTD/svg11.dtd"><svg t="1560088607123" class="icon" style="" viewBox="0 0 1024 1024" version="1.1" xmlns="http://www.w3.org/2000/svg" p-id="2869" xmlns:xlink="http://www.w3.org/1999/xlink" width="16" height="16"><defs><style type="text/css"></style></defs><path d="M433.389899 147.393939H183.725253C159.806061 147.393939 139.636364 166.787879 139.636364 191.482828v249.664647c0 23.919192 19.393939 44.088889 44.088889 44.088889h249.664646c23.919192 0 44.088889-19.393939 44.088889-44.088889V191.482828c0-24.694949-20.169697-44.088889-44.088889-44.088889z m-8.274747 284.832324H192.646465V199.757576h232.468687v232.468687z m0 0M433.389899 538.375758H183.725253c-23.919192 0-44.088889 19.393939-44.088889 44.088888v249.664647c0 23.919192 19.393939 44.088889 44.088889 44.088889h249.664646c23.919192 0 44.088889-19.393939 44.088889-44.088889V582.464646c0-24.694949-20.169697-44.088889-44.088889-44.088888z m-8.274747 284.70303H192.646465V590.610101h232.468687v232.468687z m0 0M852.686869 376.113131c-14.222222 0-26.117172 11.894949-26.117172 26.117172v29.866667H594.10101V199.757576H623.191919c14.222222 0 26.117172-11.894949 26.117172-26.117172s-11.894949-26.117172-26.117172-26.117172h-38.141414c-23.919192 0-44.088889 19.393939-44.088889 44.088889v249.664647c0 23.919192 19.393939 44.088889 44.088889 44.088889h249.664647c23.919192 0 44.088889-19.393939 44.088888-44.088889v-38.917172c0.129293-14.222222-11.894949-26.246465-26.117171-26.246465z m0 0M825.018182 297.632323c0 16.161616 13.058586 29.090909 29.090909 29.090909 16.161616 0 29.090909-13.058586 29.090909-29.090909 0-16.161616-13.058586-29.090909-29.090909-29.090909s-29.090909 12.929293-29.090909 29.090909z m0 0M824.371717 182.561616c0 16.161616 13.058586 29.090909 29.090909 29.090909 16.161616 0 29.090909-13.058586 29.090909-29.090909 0-16.161616-13.058586-29.090909-29.090909-29.090909-16.032323-0.129293-29.090909 12.929293-29.090909 29.090909z m0 0M706.973737 178.812121c0 16.161616 13.058586 29.090909 29.090909 29.090909s29.090909-13.058586 29.09091-29.090909c0-16.161616-13.058586-29.090909-29.09091-29.090909-16.032323-0.129293-29.090909 12.929293-29.090909 29.090909z m0 0M850.488889 538.375758H569.406061c-14.222222 0-26.117172 11.894949-26.117172 26.117171s12.024242 26.117172 26.117172 26.117172h254.836363v148.040404c0 14.222222 11.894949 26.117172 26.117172 26.117172s26.117172-11.894949 26.117172-26.117172V564.492929c0.129293-14.222222-11.765657-26.117172-25.987879-26.117171z m0 0M850.488889 820.105051H595.652525V666.117172c0-14.222222-12.024242-26.117172-26.117171-26.117172-14.222222 0-26.117172 11.894949-26.117172 26.117172v180.880808c0 14.222222 12.024242 26.117172 26.117172 26.117172h281.082828c14.222222 0 26.117172-11.894949 26.117172-26.117172-0.129293-14.222222-12.024242-26.892929-26.246465-26.892929z m0 0"  p-id="2870"></path></svg>
