<?xml version="1.0" standalone="no"?><!DOCTYPE svg PUBLIC "-//W3C//DTD SVG 1.1//EN" "http://www.w3.org/Graphics/SVG/1.1/DTD/svg11.dtd"><svg class="icon" width="16px" height="16.00px" viewBox="0 0 1024 1024" version="1.1" xmlns="http://www.w3.org/2000/svg"><path  d="M875.936291 235.44229h-137.808646v-72.576969c0-44.439118-37.440727-80.586386-83.466993-80.586386H379.865075c-46.032406 0-83.473133 36.147268-83.473133 80.586386v72.570829h-149.95529c-46.019103 0-83.461877 36.144198-83.461877 80.591503v543.119765c0 44.445258 37.442774 80.586386 83.461877 80.586386h729.500663c46.037523 0 83.488483-36.141128 83.488482-80.586386v-543.119765c-0.001023-44.446281-37.45096-80.585363-83.489506-80.585363z m-524.743232-72.576969c0-15.250332 12.859889-27.672246 28.672016-27.672246h274.795577c15.795754 0 28.67611 12.421914 28.67611 27.672246v72.576969H351.193059v-72.576969z m360.985588 505.875513H595.345732v114.00552H439.185112V668.740834H319.893192V517.957689h119.290897V403.965471H595.344708v114.008591h116.832916v150.766772z"  /></svg>
