<?xml version="1.0" standalone="no"?><!DOCTYPE svg PUBLIC "-//W3C//DTD SVG 1.1//EN" "http://www.w3.org/Graphics/SVG/1.1/DTD/svg11.dtd"><svg class="icon" width="16px" height="15.94px" viewBox="0 0 1028 1024" version="1.1" xmlns="http://www.w3.org/2000/svg"><path  d="M735.116003 278.837105c34.566583 0 76.046483 32.262144 117.526383 66.828727 73.742044 62.21985 124.4397 140.570772 159.006282 228.139449 4.608878 11.522194 6.913317 23.044389 6.913317 34.566583 2.304439 34.566583-16.131072 55.306533-50.697655 55.306534h-9.217756c-106.004188-39.175461-214.312816-71.437605-315.708126-122.135261-82.9598-41.4799-99.090872-138.266333-50.697656-205.09506 29.957705-39.175461 69.133166-57.610972 142.875211-57.610972zM59.915411 361.796904c16.131072 4.608878 34.566583 6.913317 50.697655 13.826634 73.742044 25.348828 147.484088 50.697655 218.921694 82.959799 34.566583 16.131072 69.133166 41.4799 94.481994 69.133167 43.784339 50.697655 43.784339 115.221944 6.913317 163.61516-39.175461 50.697655-108.308627 76.046483-165.9196 48.393217-46.088778-20.73995-87.568677-53.002094-124.439699-87.568678C80.655361 599.154109 43.784339 527.716504 11.522194 453.974459c-4.608878-9.217756-6.913317-20.73995-6.913316-29.957705-4.608878-41.4799 13.826633-59.915411 55.306533-62.21985zM748.942636 725.898247c-6.913317 16.131072-13.826633 48.393216-32.262144 76.046483-64.524289 103.69975-161.310722 172.832916-274.228227 214.312816-59.915411 23.044389-89.873116-6.913317-78.350922-69.133166 4.608878-23.044389 11.522194-43.784339 20.73995-64.524289 23.044389-62.21985 46.088778-124.4397 69.133166-188.963988 13.826633-39.175461 36.871022-71.437605 71.437606-96.786433 46.088778-32.262144 92.177555-41.4799 142.87521-16.131072 53.002094 27.653267 76.046483 73.742044 80.655361 145.179649zM412.49456 460.887776c-96.786433 0-163.615161-108.308627-122.135261-202.790621C322.621443 186.659549 375.623538 133.657455 437.843387 89.873116c41.4799-27.653267 87.568677-48.393216 131.353016-71.437605 6.913317-4.608878 16.131072-6.913317 23.044389-9.217755 48.393216-9.217756 73.742044 13.826633 69.133167 62.219849-2.304439 13.826633-4.608878 27.653267-9.217756 41.4799-27.653267 73.742044-53.002094 149.788527-82.9598 223.530572-25.348828 62.21985-66.828728 108.308627-133.657455 122.13526-4.608878 0-6.913317 2.304439-11.522194 2.304439h-11.522194z"  /></svg>
