<?xml version="1.0" standalone="no"?><!DOCTYPE svg PUBLIC "-//W3C//DTD SVG 1.1//EN" "http://www.w3.org/Graphics/SVG/1.1/DTD/svg11.dtd"><svg t="1553853655363" class="icon" style="" viewBox="0 0 1024 1024" version="1.1" xmlns="http://www.w3.org/2000/svg" p-id="2245" xmlns:xlink="http://www.w3.org/1999/xlink" width="16" height="16"><defs><style type="text/css"></style></defs><path d="M795.839045 932.291298H227.169371c-76.380598 0-138.530077-62.117756-138.530076-138.498354V225.122247c0-76.364225 62.149479-138.498354 138.530076-138.498354h568.670697c76.364225 0 138.513704 62.134129 138.513704 138.498354v568.670697c0 76.379575-62.150502 138.498354-138.514727 138.498354zM227.169371 112.143103c-62.310138 0-113.01189 50.67003-113.01189 112.979144v568.670697c0 62.325487 50.701752 112.979144 113.01189 112.979145h568.670697c62.310138 0 112.995517-50.653657 112.995517-112.979145V225.122247c0-62.310138-50.685379-112.979144-112.995517-112.979144H227.169371z" p-id="2246"></path><path d="M503.861134 766.259868c-3.2623 0-6.523577-1.231037-9.017374-3.741208L255.214101 522.856255c-61.702294-61.685921-61.702294-162.130587 0.016373-223.864603 29.899984-29.883611 69.648266-46.352701 111.940488-46.352701s82.024132 16.46909 111.907743 46.352701L581.744969 401.657916c4.972245 4.988618 4.972245 13.047154 0 18.052145-4.988618 4.988618-13.047154 4.988618-18.052145 0L461.04191 317.043796c-25.071002-25.087375-58.408271-38.885636-93.871971-38.885635s-68.817342 13.798261-93.888344 38.885635c-51.773154 51.788503-51.804876 136.019907-0.031722 187.760315L512.895905 744.465492c4.972245 5.004991 4.972245 13.063527 0 18.052145-2.494821 2.51017-5.757121 3.742231-9.034771 3.742231z" p-id="2247"></path><path d="M536.335756 766.259868a12.682857 12.682857 0 0 1-9.033747-3.741208c-4.972245-4.988618-4.972245-13.047154 0-18.052144L766.948041 504.805134c51.773154-51.740408 51.756781-135.988184-0.048095-187.760314-25.071002-25.087375-58.391898-38.885636-93.871971-38.885636-35.4637 0-68.800969 13.798261-93.856621 38.885636l-32.890085 32.905434c-4.972245 4.924149-13.030781 5.004991-18.052144 0-4.972245-4.972245-4.972245-13.063527 0-18.052145l32.890084-32.905434c29.883611-29.883611 69.632917-46.352701 111.907743-46.352701s82.024132 16.46909 111.924115 46.352701c61.717643 61.734016 61.734016 162.16231 0.048096 223.864604L545.353131 762.517637a12.750395 12.750395 0 0 1-9.017375 3.742231z" p-id="2248"></path></svg>