<?xml version="1.0" standalone="no"?><!DOCTYPE svg PUBLIC "-//W3C//DTD SVG 1.1//EN" "http://www.w3.org/Graphics/SVG/1.1/DTD/svg11.dtd"><svg t="1564298622399" class="icon" viewBox="0 0 1025 1024" version="1.1" xmlns="http://www.w3.org/2000/svg" p-id="2730" width="16.015625" height="16" xmlns:xlink="http://www.w3.org/1999/xlink"><defs><style type="text/css"></style></defs><path d="M875.432137 148.567863C677.341654-49.522621 351.450858-49.522621 153.360374 148.567863c-198.090484 198.090484-198.090484 523.981279 0 722.071763C249.210608 972.879875 383.400936 1024 511.201248 1024c127.800312 0 261.99064-51.120125 364.230889-146.970359 198.090484-204.480499 198.090484-523.981279 0-728.461778zM83.070203 512.798752c0-115.020281 44.730109-223.650546 127.800312-300.330733 83.070203-83.070203 185.310452-127.800312 300.330733-127.800312 115.020281 0 223.650546 44.730109 300.330733 127.800312 166.140406 166.140406 166.140406 440.911076 0 607.051482-166.140406 166.140406-440.911076 166.140406-607.051482 0C127.800312 736.449298 83.070203 627.819033 83.070203 512.798752z" p-id="2731"></path><path d="M709.291732 416.948518L607.051482 314.708268l19.170047-19.170046c19.170047-19.170047 57.51014-19.170047 76.680187 0l25.560062 25.560062c19.170047 19.170047 19.170047 57.51014 0 76.680187l-19.170046 19.170047zM434.521061 691.719189c-38.340094 19.170047-57.51014 31.950078-95.850234 51.120125-19.170047 6.390016-38.340094 12.780031-51.120125 0-12.780031-12.780031-6.390016-31.950078 0-51.120125 12.780031-31.950078 25.560062-57.51014 51.120125-95.850234L575.101404 359.438378l102.24025 102.240249-242.820593 230.040562z" p-id="2732"></path></svg>