<?xml version="1.0" standalone="no"?><!DOCTYPE svg PUBLIC "-//W3C//DTD SVG 1.1//EN" "http://www.w3.org/Graphics/SVG/1.1/DTD/svg11.dtd"><svg t="1554624078210" class="icon" style="" viewBox="0 0 1024 1024" version="1.1" xmlns="http://www.w3.org/2000/svg" p-id="2177" xmlns:xlink="http://www.w3.org/1999/xlink" width="16" height="16"><defs><style type="text/css"></style></defs><path d="M743.93 710.646v-48.17c0-53.567-42.032-97.149-93.702-97.149-51.664 0-93.707 43.581-93.707 97.149v103.767c0 27.724-21.748 50.276-48.487 50.276-26.743 0-48.498-22.551-48.498-50.276v-141.907h4.625c6.241 0 11.3-5.25 11.3-11.717v-10.322c31.278-3.3 63.486-12.745 90.838-37.984 38.302-35.345 61.398-94.8 72.669-187.106 11.079-90.807 4.594-144.708-21.050-174.772-21.543-25.258-51.771-29.157-82.639-29.68-6.785-9.137-17.397-15.056-29.378-15.056-20.468 0-37.063 17.202-37.063 38.419 0 21.225 16.594 38.429 37.063 38.429 11.906 0 22.464-5.842 29.238-14.882 23.742 0.449 39.561 2.855 48.91 13.821 15.61 18.303 18.997 64.677 10.065 137.837-9.684 79.313-28.614 130.987-57.869 157.979-11.97 11.042-27.948 21.443-60.787 25.715v-12.851c0-6.474-5.059-11.718-11.3-11.718h-54.447c-6.241 0-11.303 5.244-11.303 11.718v11.98c-19.795-3.367-38.559-10.412-54.191-24.843-29.255-26.993-48.192-78.666-57.869-157.979-8.932-73.161-5.545-119.536 10.062-137.837 9.358-10.963 25.147-13.369 48.907-13.821 6.781 9.043 17.345 14.882 29.245 14.882 20.465 0 37.069-17.202 37.069-38.425 0-21.22-16.604-38.422-37.069-38.422-11.974 0-22.597 5.921-29.372 15.056-30.875 0.523-61.099 4.427-82.636 29.68-25.651 30.065-32.146 83.966-21.056 174.777 11.271 92.304 34.365 151.764 72.667 187.103 25.441 23.467 55.067 33.274 84.245 37.195v11.109c0 6.47 5.063 11.717 11.308 11.717h4.618v141.91c0 53.567 42.029 97.146 93.699 97.146 51.664 0 93.7-43.578 93.7-97.146v-103.771c0-27.728 21.753-50.279 48.5-50.279 26.734 0 48.491 22.551 48.491 50.279v48.17c-25.902 9.643-44.483 35.356-44.483 65.486 0 38.352 30.101 69.556 67.089 69.556 36.996 0 67.091-31.204 67.091-69.556-0.002-30.129-18.587-55.842-44.49-65.485v0 0 0zM721.326 798.815c-12.068 0-21.885-10.173-21.885-22.681 0-12.505 9.818-22.687 21.885-22.687 12.054 0 21.881 10.182 21.881 22.687-0.003 12.508-9.825 22.681-21.881 22.681v0 0 0zM721.326 798.815z" p-id="2178"></path><path d="M512.354 1019.795c-280.799 0-509.246-228.447-509.246-509.25 0-280.798 228.447-509.245 509.246-509.245 280.803 0 509.249 228.447 509.249 509.245 0 280.803-228.445 509.25-509.249 509.25v0zM512.354 33.126c-263.247 0-477.419 214.173-477.419 477.419 0 263.252 214.172 477.423 477.419 477.423 263.251 0 477.423-214.172 477.423-477.423 0-263.247-214.172-477.419-477.423-477.419v0zM512.354 33.126z" p-id="2179"></path></svg>