<?xml version="1.0" standalone="no"?><!DOCTYPE svg PUBLIC "-//W3C//DTD SVG 1.1//EN" "http://www.w3.org/Graphics/SVG/1.1/DTD/svg11.dtd"><svg class="icon" width="16px" height="16.00px" viewBox="0 0 1024 1024" version="1.1" xmlns="http://www.w3.org/2000/svg"><path  d="M866.2 469.9c-22.5 0-43.4 6.8-60.8 18.5v-3.3c0-55.3-46.7-100.6-103.8-100.6H325.1c-57.1 0-103.8 45.3-103.8 100.6v23.4L127.7 385H47l102.3 252.8c13.8 30.5 41.7 51.7 73.8 57.1 13.3 99.3 101.4 176.6 207.3 176.6h178.1c114.5 0 196.2-90.4 196.9-201.1 17.4 11.7 38.3 18.5 60.8 18.5 60.4 0 109.5-49.1 109.5-109.5s-49.1-109.5-109.5-109.5z m0 145.7c-20.2 0-36.6-16.3-36.6-36.4 0-20.1 16.4-36.4 36.6-36.4 20.2 0 36.6 16.3 36.6 36.4 0 20.1-16.4 36.4-36.6 36.4z m-258-401.3h-52.7c4.1-7.2 6.5-15.4 6.5-24.3 0-26.8-21.8-48.6-48.7-48.6s-48.7 21.8-48.7 48.6c0 8.9 2.4 17.1 6.5 24.3h-53c-55.1 0-99.7 43.5-99.7 97.2h389.5c0-53.7-44.6-97.2-99.7-97.2z" /></svg>
