<?xml version="1.0" standalone="no"?><!DOCTYPE svg PUBLIC "-//W3C//DTD SVG 1.1//EN" "http://www.w3.org/Graphics/SVG/1.1/DTD/svg11.dtd"><svg t="1553853472227" class="icon" style="" viewBox="0 0 1024 1024" version="1.1" xmlns="http://www.w3.org/2000/svg" p-id="1385" xmlns:xlink="http://www.w3.org/1999/xlink" width="16" height="16"><defs><style type="text/css"></style></defs><path d="M512 96 64 268.8l0 492.8 448 172.8 448-172.8L960 268.8 512 96zM838.4 288 512 416l-326.4-128 326.4-128L838.4 288zM128 332.8l352 134.4 0 377.6L128 716.8 128 332.8zM544 851.2 544 467.2 896 332.8l0 384L544 851.2z" p-id="1386"></path><path d="M396.8 518.4l-160-64C217.6 448 198.4 460.8 192 473.6 185.6 492.8 198.4 512 211.2 518.4l160 64c6.4 0 6.4 0 12.8 0 12.8 0 25.6-6.4 32-19.2C422.4 544 409.6 524.8 396.8 518.4z" p-id="1387"></path></svg>