<?xml version="1.0" standalone="no"?><!DOCTYPE svg PUBLIC "-//W3C//DTD SVG 1.1//EN" "http://www.w3.org/Graphics/SVG/1.1/DTD/svg11.dtd"><svg class="icon" width="16px" height="16.00px" viewBox="0 0 1024 1024" version="1.1" xmlns="http://www.w3.org/2000/svg"><path  d="M877.056 51.882667C934.570667 51.882667 981.333333 99.968 981.333333 159.018667V916.906667C981.333333 975.957333 934.570667 1024 877.056 1024H146.944C89.429333 1024 42.666667 975.957333 42.666667 916.906667V158.976c0-59.050667 46.762667-107.093333 104.277333-107.093333h73.984c19.669333 0 35.669333 16.384 35.669333 36.608a36.138667 36.138667 0 0 1-35.669333 36.608H146.944a33.493333 33.493333 0 0 0-32.981333 33.877333v127.914667H910.08V159.018667a33.493333 33.493333 0 0 0-32.981333-33.834667H802.986667a36.138667 36.138667 0 0 1-35.626667-36.650667c0-20.224 15.957333-36.650667 35.626667-36.650666h74.026666zM435.114667 125.141333a36.138667 36.138667 0 0 1-35.669334-36.608c0-20.224 15.957333-36.650667 35.669334-36.650666h154.282666c19.669333 0 35.626667 16.426667 35.626667 36.650666a36.138667 36.138667 0 0 1-35.626667 36.608H435.114667zM328.106667 177.066667c-19.712 0-35.669333-19.84-35.669334-44.245334V44.245333C292.48 19.797333 308.48 0 328.149333 0c19.669333 0 35.669333 19.797333 35.669334 44.245333v88.576c0 24.405333-16 44.245333-35.669334 44.245334z m368.213333 0c-19.712 0-35.669333-19.84-35.669333-44.245334V44.245333c0-24.448 15.957333-44.245333 35.626666-44.245333 19.712 0 35.669333 19.797333 35.669334 44.245333v88.576c0 24.405333-15.957333 44.245333-35.669334 44.245334z m103.936 634.410666H224.170667a32.085333 32.085333 0 0 0-31.701334 32c0 17.749333 14.208 31.914667 31.701334 31.914667h576.128a32.085333 32.085333 0 0 0 31.701333-31.957333 31.744 31.744 0 0 0-31.701333-32z m-37.76-324.266666c20.266667-20.138667 20.266667-51.328 1.152-70.4a48.896 48.896 0 0 0-69.248-0.085334l-207.872 166.4-78.250667-81.962666a49.066667 49.066667 0 1 0-69.674666 69.077333l107.946666 112.085333a48.981333 48.981333 0 0 0 72.789334 4.138667l243.157333-199.253333z" /></svg>
