<?xml version="1.0" standalone="no"?><!DOCTYPE svg PUBLIC "-//W3C//DTD SVG 1.1//EN" "http://www.w3.org/Graphics/SVG/1.1/DTD/svg11.dtd"><svg class="icon" width="16px" height="16.00px" viewBox="0 0 1024 1024" version="1.1" xmlns="http://www.w3.org/2000/svg"><path  d="M127.68 128.384h317.44c17.536 0 31.744 14.272 31.744 31.936a31.808 31.808 0 0 1-31.744 31.936H159.424a32 32 0 0 0-31.744 31.936v639.232c0 17.6 14.272 31.936 31.744 31.936h634.88a32 32 0 0 0 31.744-31.936V575.872a31.808 31.808 0 1 1 63.488 0v319.616a63.872 63.872 0 0 1-63.488 63.936H127.68a63.872 63.872 0 0 1-63.488-63.936V192.32a64 64 0 0 1 63.488-63.936zM375.808 766.528a117.76 117.76 0 0 1-83.776-34.816 118.272 118.272 0 0 1-34.688-84.16c0-31.808 12.288-61.76 34.752-84.224l215.68-216.832a227.008 227.008 0 0 1 60.16-214.336 226.368 226.368 0 0 1 255.168-45.568l38.912 18.048-28.48 32.32s-26.88 30.336-52.288 55.936a33.728 33.728 0 0 0-10.88 23.616c0 8.256 3.776 16.384 10.88 23.552 14.592 14.528 32.64 14.4 47.04 0l17.728-16.32c15.616-14.144 27.136-24.512 34.88-33.216l32.256-36.416 20.288 44.288a229.312 229.312 0 0 1-44.864 256.192 224.832 224.832 0 0 1-213.248 60.288L459.52 731.712a117.952 117.952 0 0 1-83.712 34.816z m352.448-636.864a163.392 163.392 0 0 0-154.688 216l6.336 18.816L336.896 608.64a54.528 54.528 0 0 0-16.064 38.976 54.848 54.848 0 0 0 93.76 38.976l242.944-244.096 18.688 6.272c59.2 20.096 123.52 4.928 167.488-39.296 36.48-36.672 52.608-88.448 45.504-138.624l-0.512 0.448-16.512 15.04c-37.952 38.144-96.704 38.144-135.808-1.024a97.728 97.728 0 0 1-29.504-68.736c0-25.28 10.56-49.664 29.504-68.8 5.248-5.376 10.688-10.88 15.744-16.32a157.76 157.76 0 0 0-23.872-1.792zM417.728 638.144a31.808 31.808 0 0 1-31.744 31.936 31.872 31.872 0 0 1-31.744-31.936 31.808 31.808 0 1 1 63.488 0z" /></svg>
