<?xml version="1.0" standalone="no"?><!DOCTYPE svg PUBLIC "-//W3C//DTD SVG 1.1//EN" "http://www.w3.org/Graphics/SVG/1.1/DTD/svg11.dtd"><svg class="icon" width="16px" height="16.00px" viewBox="0 0 1024 1024" version="1.1" xmlns="http://www.w3.org/2000/svg"><path  d="M919.142 613.478c-5.632-9.728-16.076-14.848-26.521-14.233H711.68a29.084 29.084 0 0 0-14.848 4.096 29.397 29.397 0 0 0-11.98 11.264l-90.727 157.184c-4.199 7.168-4.813 15.462-2.56 22.835 0.614 2.15 1.536 4.403 2.765 6.451l87.654 151.655c3.38 12.083 14.438 20.89 27.546 20.89h181.145c11.162 1.433 22.528-3.79 28.467-14.03l89.703-155.443c2.15-3.686 3.277-7.577 3.686-11.469 2.048-7.168 1.229-15.052-2.765-22.016l-90.624-157.184z m-52.224 286.106H736.256l-65.126-112.64 64.921-112.333h130.765l65.024 112.64-64.922 112.333zM683.315 404.378c3.891 11.264 14.541 19.25 27.034 19.25H893.03c1.024 0 2.048-0.102 2.97-0.204 9.42-0.41 18.432-5.53 23.552-14.234l89.19-154.726c1.946-3.38 3.175-6.963 3.584-10.65 2.356-7.475 1.741-15.77-2.457-23.142L919.757 64.41c-5.735-9.933-16.487-15.156-27.239-14.234H713.011c-5.53 0-10.752 1.638-15.155 4.403-4.915 2.458-9.216 6.247-12.186 11.367L595.456 222.31c-2.355 4.199-3.584 8.704-3.789 13.108-0.41 5.53 0.82 11.161 3.789 16.384l87.86 152.576z m54.067-280.167h131.482l64.922 112.23-65.23 112.64H737.179l-65.024-112.23 65.228-112.64zM611.123 573.03V454.86c-19.558 0.103-39.424-4.71-57.549-15.257-54.681-31.539-73.216-101.683-41.37-156.774l-102.297-58.983c-9.728 17.101-23.859 31.847-41.984 42.292-54.579 31.539-124.62 12.595-156.365-42.292l-102.297 59.085c9.83 16.896 15.565 36.455 15.565 57.447 0 62.976-51.303 114.073-114.586 114.278v118.17c19.456-0.103 39.22 4.812 57.242 15.257 54.476 31.437 73.113 101.274 41.676 156.16l102.298 59.085c9.626-16.896 23.757-31.437 41.78-41.78 54.476-31.538 124.313-12.697 156.16 42.087l102.297-59.085c-9.83-16.793-15.36-36.352-15.36-57.139-0.103-63.078 51.405-114.278 114.79-114.38zM432.64 584.5c-38.81 67.174-124.723 90.111-192 51.302-67.277-38.81-90.317-124.724-51.61-191.898 38.81-67.174 124.724-90.112 192-51.302 67.277 38.912 90.317 124.825 51.61 191.897z"  /></svg>
