<?xml version="1.0" standalone="no"?><!DOCTYPE svg PUBLIC "-//W3C//DTD SVG 1.1//EN" "http://www.w3.org/Graphics/SVG/1.1/DTD/svg11.dtd"><svg class="icon" width="16px" height="16.00px" viewBox="0 0 1024 1024" version="1.1" xmlns="http://www.w3.org/2000/svg"><path  d="M965.05667627 964.68119147h-906.32729174c-12.79487467 0-23.21022187 10.4153472-23.21022186 23.21022186 0 12.81997973 10.4153472 23.23532693 23.21022186 23.23532694h906.32729174c12.81997973 0 23.23532693-10.4153472 23.23532693-23.23532694 0-12.79487467-10.41425493-23.21022187-23.23532693-23.21022186zM110.19049813 858.91990293h187.70000747c12.3091456 0 22.26277653-9.9547232 22.2627776-22.26277653s-9.9547232-22.26277653-22.2627776-22.26277653H110.19049813c-16.6075776 0-30.14469013-13.53711253-30.14469013-30.1446912V290.67442347c0-16.6075776 13.53711253-30.14469013 30.14469013-30.14469014h187.70000747c12.3091456 0 22.26277653-9.9547232 22.2627776-22.26277653 0-12.3091456-9.9547232-22.26277653-22.2627776-22.2627776H110.19049813c-41.1734752 0-74.67024427 33.49676907-74.67024426 74.67024427v493.574144c-0.0010912 41.1734752 33.4956768 74.67133547 74.67024426 74.67133546zM418.136352 858.91990293h187.7262048c41.1734752 0 74.67024427-33.49676907 74.6702432-74.67024426V87.543504c0-41.1734752-33.49676907-74.67024427-74.6702432-74.67024427H418.136352c-41.1734752 0-74.67024427 33.49676907-74.67024427 74.67024427v696.70506347c0 41.1734752 33.49676907 74.67133547 74.67024427 74.67133546zM387.99166187 87.543504c0-16.6075776 13.53711253-30.14469013 30.14469013-30.14469013h187.7262048c16.6075776 0 30.14469013 13.53711253 30.14469013 30.14469013v696.70506347c0 16.6075776-13.53711253 30.14469013-30.14469013 30.14469013H418.136352c-16.6075776 0-30.14469013-13.53711253-30.14469013-30.14469013V87.543504zM913.80950187 351.29672H726.08329707c-12.3091456 0-22.26277653 9.9547232-22.26277654 22.26277653 0 12.3091456 9.9547232 22.26277653 22.26277654 22.26277654h187.7262048c16.6075776 0 30.14469013 13.53711253 30.14469013 30.1446912v358.2816032c0 16.6075776-13.53711253 30.14469013-30.14469013 30.14469013H726.08329707c-12.3091456 0-22.26277653 9.9547232-22.26277654 22.2627776s9.9547232 22.26277653 22.26277654 22.26277653h187.7262048c41.1734752 0 74.67024427-33.49676907 74.67024426-74.67024426V425.96696427c0-41.1734752-33.49676907-74.67024427-74.67024426-74.67024427z"  /><path fill="#333333" d="M501.07272747 177.46564907v142.40711146c0 12.7697696 6.9093632 20.3951744 18.501376 20.3951744 12.1803456 0 19.44773013-7.6254048 19.44772906-20.3951744V140.02737813c0-12.1803456-7.13967573-19.44773013-19.11590506-19.44772906-3.68499413 0-7.60029973 2.0215072-17.7078368 12.81997973-6.26972907 6.7816544-11.89873173 10.92727253-16.53117014 12.20654187a166.2340448 166.2340448 0 0 0-5.88551146 1.53577813c-14.30445653 3.1981728-16.42856747 11.87362667-16.42856747 16.76148267 0.0010912 16.83788907 15.12419307 24.2329824 37.71988587 13.5622176zM173.3964384 444.135424c-14.22804907 12.7697696-25.6661568 24.20787733-34.0086944 34.0599968-12.1290432 14.73997547-17.5288256 24.66850133-17.52882667 32.14109227 0 5.8604064 2.30312107 19.44773013 23.54204694 19.44773013h105.0201408c13.152896 0 21.00861227-7.037072 21.00861226-18.80809493 0-11.5920128-7.85571733-18.501376-21.00861226-18.501376h-73.54488c6.55134293-7.70290347 14.22804907-15.68632853 22.95371306-23.84985707 5.42488747-5.0155648 17.3247104-15.58372587 35.67218134-31.62916587 23.21022187-20.08845547 34.9812448-40.5851424 34.9812448-60.92901546 0-19.70423787-7.65160107-35.4418688-22.69829547-46.72716267-13.30680107-10.05623467-29.96568-15.1744032-49.5673152-15.1744032-20.95840213 0-38.76884267 6.98577067-52.97069547 20.7280896-14.04903893 13.58841493-21.18871467 29.22344213-21.18871466 46.52195627 0 12.7697696 7.39509227 20.3951744 19.75554026 20.3951744 8.31634133 0 13.97154027-6.73035307 16.78658774-19.98585174 2.0215072-9.46790187 6.26972907-16.65887893 13.152896-22.05866133 6.80675947-5.55259627 14.81638187-8.26504 24.46329493-8.26504 9.5192032 0 17.37492053 2.04770347 23.31173333 6.03941653 6.34613547 4.40103573 9.4427968 10.46664853 9.4427968 18.52648214 0 11.2077952-7.4212896 23.54204587-21.98116266 36.59342933a6464.2498144 6464.2498144 0 0 0-35.59359147 31.4752608zM836.63092907 624.1085152c-8.39384 4.86165973-17.86174187 7.31868587-28.17448427 7.31868587-20.80449707 0-32.57552-7.85571733-37.07915947-24.84751147-3.42957653-11.89873173-8.9308704-17.93814827-16.37726506-17.93814827-12.74357333 0-20.0622592 7.8819136-20.0622592 21.64933867 0 18.80809493 8.29123627 33.85478933 24.59209493 44.73076053 13.84383253 9.315088 30.2985952 14.02284267 48.92768 14.02284267 20.36897813 0 38.46103147-5.37358507 53.68673707-15.9428384 17.75913813-12.10393813 26.766416-28.73771307 26.76641493-49.41340907 0-23.389232-9.74951573-40.8416512-29.01823467-52.0494464 17.4011168-10.4917536 26.20427947-24.77110507 26.20427947-42.60665066 0-20.08845547-8.64925653-35.79989013-25.76876053-46.75226774-13.9464352-8.57285013-31.193648-12.92258347-51.23080107-12.92258346-16.12184853 0-30.98953173 4.5036384-44.24503147 13.38320853-15.45601707 10.4917536-23.31173333 24.25917867-23.3117344 40.96935893 0 12.74357333 7.497696 20.36897813 20.08845654 20.36897814 7.19097707 0 12.7697696-5.24587733 16.5562752-15.73762987 4.96426347-14.5860704 14.7912768-21.3677248 30.91203413-21.36772587 9.87722453 0 18.5777824 1.688592 25.76875947 5.0155648 10.77336747 5.16946987 12.02753173 11.6684192 12.02753173 16.12184854 0 6.21842667-1.688592 15.09799573-16.4285664 20.24126933-6.93446827 2.50832853-18.70658347 4.27332693-34.95504853 5.2709824-19.6016352 1.15156053-22.51928533 12.07883307-22.51928534 18.501376 0 5.65519893 2.22671467 18.80809493 22.90241174 18.80809493 26.22938453 0 37.43827093 4.40103573 42.19732693 8.06092374 7.80441493 6.09071893 11.61820907 14.15055147 11.61820907 24.6936064-0.0010912 8.62415147-4.17290667 15.12419307-13.0775808 20.42137173z"  /></svg>
