<?xml version="1.0" standalone="no"?><!DOCTYPE svg PUBLIC "-//W3C//DTD SVG 1.1//EN" "http://www.w3.org/Graphics/SVG/1.1/DTD/svg11.dtd"><svg t="1547283523625" class="icon" style="" viewBox="0 0 1024 1024" version="1.1" xmlns="http://www.w3.org/2000/svg" p-id="1954" xmlns:xlink="http://www.w3.org/1999/xlink" width="16" height="16"><defs><style type="text/css"></style></defs><path d="M729.827496 16.445234l-37.783269 0L163.079448 16.445234c-25.188715 0-44.080349 25.188715-44.080349 50.377626l0 906.796682c0 25.188715 25.188715 50.377626 50.377626 50.377626L855.771464 1023.997168c25.188715 0 50.377626-25.188715 50.377626-50.377626L906.14909 262.035891 906.14909 192.766827 729.827496 16.445234zM811.691114 967.322265 207.159993 967.322265c-18.891634 0-37.783269-18.891438-37.783269-37.783072L169.376725 98.308852c0-18.891634 18.891634-37.783269 37.783269-37.783269l428.209528 0 0 0 0 195.213228c0 25.188715 25.188715 50.377626 50.377626 50.377626l157.429959 0 0 0 0 623.422756C849.474187 954.727908 830.582749 967.322265 811.691114 967.322265zM522.019911 332.55096 270.131977 332.55096c-18.891634 0-31.485992-12.594357-31.485992-31.485992l0 0c0-18.891634 12.594357-31.485992 31.485992-31.485992l251.887934 0c18.891634 0 31.485992 12.594357 31.485992 31.485992l0 0C553.505903 319.956602 540.911546 332.55096 522.019911 332.55096zM748.719131 653.708155 270.131977 653.708155c-18.891634 0-31.485992-12.594357-31.485992-31.485992l0 0c0-18.891634 12.594357-31.485992 31.485992-31.485992l478.587154 0c18.891634 0 31.485992 12.594357 31.485992 31.485992l0 0C780.205123 641.113797 767.610765 653.708155 748.719131 653.708155zM748.719131 838.852661 270.131977 838.852661c-18.891634 0-31.485992-12.594357-31.485992-31.485992l0 0c0-18.891634 12.594357-31.485992 31.485992-31.485992l478.587154 0c18.891634 0 31.485992 12.594357 31.485992 31.485992l0 0C780.205123 826.258304 767.610765 838.852661 748.719131 838.852661zM396.075944 458.494927 396.075944 458.494927c-18.891634 0-31.485992-12.594357-31.485992-31.485992L364.589952 175.121001c0-18.891634 12.594357-31.485992 31.485992-31.485992l0 0c18.891634 0 31.485992 12.594357 31.485992 31.485992l0 251.887934C427.561936 445.900569 414.967579 458.494927 396.075944 458.494927z" p-id="1955"></path></svg>