<?xml version="1.0" standalone="no"?><!DOCTYPE svg PUBLIC "-//W3C//DTD SVG 1.1//EN" "http://www.w3.org/Graphics/SVG/1.1/DTD/svg11.dtd"><svg t="1557903642235" class="icon" style="" viewBox="0 0 1024 1024" version="1.1" xmlns="http://www.w3.org/2000/svg" p-id="1577" xmlns:xlink="http://www.w3.org/1999/xlink" width="16" height="16"><defs><style type="text/css"></style></defs><path d="M714.91 0C548.304 278.98 416.478 141.798 223.685 342.434 53.538 519.485 112.548 732.737 255.779 806.173c141.393-73.18 286.048-236.826 393.358-473.726 0 0 96.413 299.135-198.923 587.36 143.42 170.138 386.819 51.774 454.832-218.91C978.996 406.621 786.203 107.01 714.91 0zM102.345 966.237c0.126 2.909 3.38 57.763 74.394 57.763 51.677 0 313.754-144.673 448.45-520.199C421.404 869.023 125.56 959.645 102.345 966.237z"  p-id="1578"></path></svg>
