<?xml version="1.0" standalone="no"?><!DOCTYPE svg PUBLIC "-//W3C//DTD SVG 1.1//EN" "http://www.w3.org/Graphics/SVG/1.1/DTD/svg11.dtd"><svg t="1560088819772" class="icon" style="" viewBox="0 0 1024 1024" version="1.1" xmlns="http://www.w3.org/2000/svg" p-id="5220" xmlns:xlink="http://www.w3.org/1999/xlink" width="16" height="16"><defs><style type="text/css"></style></defs><path d="M285.261128 329.095763a222.437857 222.437857 0 0 1 261.318498-261.318498 222.754991 222.754991 0 0 1 174.360327 174.296901 222.437857 222.437857 0 0 1-261.381924 261.318497 222.628137 222.628137 0 0 1-174.296901-174.2969m129.707847 250.979926c0.126854 0 0.19028 0.126854 0.253707 0.19028a461.430114 461.430114 0 0 1 72.877416-8.562621c13.509913-0.507415 27.273532 0.634268 40.973726 1.458817 14.144181 0.887975 28.415215 1.268536 42.178835 3.551902l6.97695 1.20511c31.079142 5.39128 58.352674 14.144181 63.553673 15.793278 15.15901 4.820438 26.639264 10.084864 43.257091 16.110412 32.855093 11.924242 52.263699-38.817214 22.389668-58.986942h0.126853l-1.141682-0.443988a512.17157 512.17157 0 0 0-57.210992-20.930851c94.632815-56.893857 154.444306-165.987987 135.923675-287.957761-17.378949-114.865971-106.557057-210.767322-220.154491-234.806087A285.99153 285.99153 0 0 0 217.584712 285.584964c0 103.639423 56.069309 193.705508 138.904735 243.685842A507.858546 507.858546 0 0 0 0.664988 943.638219C-4.662865 981.377177 25.782009 1014.993392 63.964954 1014.993392h542.67987c-14.017327-19.662314-21.565119-41.734847-30.825434-64.378222l-473.925197 0.887975c-19.852595 0-35.7093-18.203497-31.205996-37.548677a445.256275 445.256275 0 0 1 344.280778-333.878779"  p-id="5221"></path><path d="M949.403358 851.605904c-4.313024 23.467923-9.894584 43.637652-38.056092 71.862587l-0.570841 0.507414-0.507415 0.634268c-17.632656 20.423436-55.308187 40.339457-69.071806 45.857591v-285.420689c32.981946 4.757011 112.709459 25.751289 124.506847 41.100579-5.898694 62.602271-10.782559 95.520791-16.300693 125.45825m-108.015874-219.203089h-0.19028-0.190281c-3.107914 0-177.404815 30.254593-173.408925 73.38483 7.357511 78.902964 13.446486 119.052141 20.106302 154.951721 5.327853 29.176337 12.875644 59.367503 52.327126 98.818985 29.683752 34.377336 94.125401 64.441649 101.102351 64.441649h0.063427c7.040377 0 71.418599-30.064313 101.165777-64.441649 39.451482-39.451482 46.999273-69.706075 52.327126-98.818985 6.659816-35.89958 12.685364-76.048757 20.106302-154.951721 3.99589-43.130237-170.301011-73.38483-173.408925-73.38483"  p-id="5222"></path></svg>
