<?xml version="1.0" standalone="no"?><!DOCTYPE svg PUBLIC "-//W3C//DTD SVG 1.1//EN" "http://www.w3.org/Graphics/SVG/1.1/DTD/svg11.dtd"><svg class="icon" width="16px" height="16.00px" viewBox="0 0 1024 1024" version="1.1" xmlns="http://www.w3.org/2000/svg"><path  d="M989.866667 455.111111c0 5.688889 0 11.377778 0 22.755556 0 11.377778 0 22.755556 0 39.822222 0 11.377778 0 22.755556 0 39.822222 0 5.688889 0 11.377778 0 22.755556 0 0 0 0 0 0 0 17.066667-5.688889 34.133333-11.377778 51.2-45.511111 11.377778-91.022222 39.822222-119.466667 91.022222-28.444444 45.511111-34.133333 96.711111-17.066667 142.222222-11.377778 11.377778-28.444444 22.755556-39.822222 34.133333 0 0 0 0 0 0-22.755556 17.066667-45.511111 34.133333-73.955556 45.511111 0 0 0 0 0 0-11.377778 5.688889-22.755556 11.377778-39.822222 17.066667 0 0 0 0-5.688889 0-11.377778 5.688889-22.755556 11.377778-39.822222 11.377778-34.133333-34.133333-79.644444-56.888889-136.533333-56.888889-56.888889 0-102.4 22.755556-136.533333 56.888889l0 0c-11.377778-5.688889-28.444444-5.688889-39.822222-11.377778 0 0 0 0-5.688889 0-11.377778-5.688889-28.444444-11.377778-39.822222-17.066667 0 0 0 0 0 0-28.444444-11.377778-51.2-28.444444-73.955556-45.511111 0 0 0 0 0 0-17.066667-11.377778-28.444444-22.755556-39.822222-34.133333 11.377778-45.511111 5.688889-96.711111-17.066667-142.222222-28.444444-45.511111-73.955556-79.644444-119.466667-91.022222-5.688889-17.066667-5.688889-34.133333-11.377778-51.2 0 0 0 0 0 0 0-5.688889 0-11.377778 0-22.755556 0-11.377778 0-22.755556 0-39.822222 0-11.377778 0-22.755556 0-39.822222 0-5.688889 0-11.377778 0-22.755556 0 0 0 0 0 0 0-17.066667 5.688889-34.133333 11.377778-51.2 45.511111-11.377778 91.022222-39.822222 119.466667-91.022222C187.733333 267.377778 193.422222 216.177778 176.355556 170.666667c11.377778-11.377778 28.444444-22.755556 39.822222-34.133333 0 0 0 0 0 0 22.755556-17.066667 45.511111-34.133333 73.955556-45.511111 0 0 0 0 0 0 11.377778-5.688889 22.755556-11.377778 39.822222-17.066667 0 0 0 0 5.688889 0C347.022222 68.266667 364.088889 62.577778 375.466667 56.888889 409.6 91.022222 455.111111 113.777778 512 113.777778c56.888889 0 102.4-22.755556 136.533333-56.888889 11.377778 5.688889 28.444444 5.688889 39.822222 11.377778 0 0 0 0 5.688889 0 11.377778 5.688889 28.444444 11.377778 39.822222 17.066667 0 0 0 0 0 0 28.444444 11.377778 51.2 28.444444 73.955556 45.511111 0 0 0 0 0 0 17.066667 11.377778 28.444444 22.755556 39.822222 34.133333-11.377778 45.511111-5.688889 96.711111 17.066667 142.222222 28.444444 45.511111 73.955556 79.644444 119.466667 91.022222C984.177778 420.977778 989.866667 438.044444 989.866667 455.111111L989.866667 455.111111 989.866667 455.111111zM938.666667 443.733333c-45.511111-17.066667-91.022222-56.888889-119.466667-102.4-28.444444-45.511111-39.822222-102.4-34.133333-147.911111-39.822222-28.444444-79.644444-56.888889-125.155556-73.955556C620.088889 147.911111 568.888889 164.977778 512 164.977778 455.111111 164.977778 403.911111 147.911111 364.088889 113.777778 318.577778 130.844444 273.066667 159.288889 233.244444 187.733333 238.933333 238.933333 233.244444 290.133333 204.8 341.333333 176.355556 386.844444 130.844444 420.977778 85.333333 443.733333 79.644444 466.488889 79.644444 489.244444 79.644444 512c0 22.755556 0 51.2 5.688889 73.955556 45.511111 17.066667 91.022222 56.888889 119.466667 102.4 28.444444 45.511111 39.822222 102.4 34.133333 147.911111 39.822222 28.444444 79.644444 56.888889 125.155556 73.955556C403.911111 881.777778 455.111111 864.711111 512 864.711111c56.888889 0 108.088889 17.066667 147.911111 45.511111 45.511111-17.066667 91.022222-39.822222 125.155556-73.955556-5.688889-51.2 5.688889-102.4 34.133333-147.911111 28.444444-51.2 68.266667-85.333333 119.466667-102.4 5.688889-22.755556 5.688889-45.511111 5.688889-73.955556C944.355556 489.244444 944.355556 466.488889 938.666667 443.733333L938.666667 443.733333zM512 688.355556c-96.711111 0-176.355556-79.644444-176.355556-176.355556C335.644444 415.288889 415.288889 341.333333 512 341.333333c96.711111 0 176.355556 79.644444 176.355556 176.355556C688.355556 608.711111 608.711111 688.355556 512 688.355556L512 688.355556zM512 386.844444c-68.266667 0-125.155556 56.888889-125.155556 125.155556 0 68.266667 56.888889 125.155556 125.155556 125.155556 68.266667 0 125.155556-56.888889 125.155556-125.155556C637.155556 443.733333 580.266667 386.844444 512 386.844444L512 386.844444z" /></svg>
