<?xml version="1.0" standalone="no"?><!DOCTYPE svg PUBLIC "-//W3C//DTD SVG 1.1//EN" "http://www.w3.org/Graphics/SVG/1.1/DTD/svg11.dtd"><svg t="1560088506548" class="icon" style="" viewBox="0 0 1024 1024" version="1.1" xmlns="http://www.w3.org/2000/svg" p-id="2598" xmlns:xlink="http://www.w3.org/1999/xlink" width="16" height="16"><defs><style type="text/css"></style></defs><path d="M997.66912 1023.488H26.34112c-32 0-25.856 6.144-25.856-25.984V26.24C0.86912-4.352-5.65888 0.256 26.34112 0.256h971.328c32.128 0.96 25.856-6.144 25.856 25.984v971.264c0 32.128 6.016 25.984-25.856 25.984zM63.84512 959.744h896.448V63.936H63.84512v895.808z m717.312-314.368c0-58.368 0.32-84.352-56.128-121.088-51.072-33.216-159.488-41.92-234.496-41.92-82.944 0-175.744 7.616-224.576 41.92-44.096 30.976-57.152 49.472-57.152 121.088h572.352zM634.78912 286.208A142.784 142.784 0 0 1 492.45312 429.44a142.784 142.784 0 0 1-142.4-143.232c0-79.104 63.744-143.232 142.4-143.232a142.848 142.848 0 0 1 142.336 143.232z m-425.984 433.664h567.104v49.728H208.80512v-49.728m3.2 114.88h567.104v49.792H212.00512v-49.792" p-id="2599"></path></svg>