<?xml version="1.0" standalone="no"?><!DOCTYPE svg PUBLIC "-//W3C//DTD SVG 1.1//EN" "http://www.w3.org/Graphics/SVG/1.1/DTD/svg11.dtd"><svg class="icon" width="16px" height="15.95px" viewBox="0 0 1027 1024" version="1.1" xmlns="http://www.w3.org/2000/svg"><path  d="M604.8 982.4H67.2c-16 0-25.6-16-25.6-25.6v-851.2c0-9.6 9.6-16 22.4-16h60.8c9.6 0 19.2-9.6 19.2-19.2s-9.6-19.2-19.2-19.2h-57.6c-35.2 0-67.2 25.6-67.2 57.6v857.6c0 32 28.8 57.6 67.2 57.6h537.6c9.6 0 19.2-9.6 19.2-19.2s-6.4-22.4-19.2-22.4z m160-892.8h44.8c16 0 25.6 9.6 25.6 19.2V515.2c0 9.6 9.6 19.2 19.2 19.2s19.2-9.6 19.2-19.2v-409.6c0-32-28.8-57.6-67.2-57.6h-41.6c-9.6 0-19.2 9.6-19.2 19.2 3.2 12.8 9.6 22.4 19.2 22.4z m16 256c0-9.6-9.6-19.2-19.2-19.2h-640c-9.6 0-16 12.8-16 22.4 0 9.6 9.6 19.2 19.2 19.2h640c6.4-3.2 16-12.8 16-22.4z m-169.6 217.6c0-9.6-9.6-19.2-19.2-19.2h-473.6c-9.6 0-19.2 9.6-19.2 19.2s9.6 19.2 19.2 19.2h473.6c12.8 3.2 19.2-9.6 19.2-19.2z m-486.4 198.4c-9.6 0-22.4 9.6-22.4 19.2s9.6 19.2 19.2 19.2h387.2c9.6 0 19.2-9.6 19.2-19.2s-9.6-19.2-19.2-19.2h-384z m83.2-633.6h470.4c28.8 0 54.4-25.6 54.4-54.4v-6.4c0-28.8-25.6-54.4-54.4-54.4h-470.4c-28.8 0-54.4 25.6-54.4 54.4v3.2c0 32 25.6 57.6 54.4 57.6z m6.4-76.8h457.6c9.6 0 19.2 9.6 19.2 19.2s-9.6 19.2-19.2 19.2h-457.6c-9.6 0-19.2-9.6-19.2-19.2 0-12.8 9.6-19.2 19.2-19.2z m579.2 502.4c-128 0-233.6 105.6-233.6 233.6s105.6 233.6 233.6 233.6 233.6-105.6 233.6-233.6-105.6-233.6-233.6-233.6z m0 438.4c-115.2 0-208-92.8-208-208s92.8-208 208-208 208 92.8 208 208-92.8 208-208 208z m105.6-291.2l-128 131.2-83.2-76.8c-6.4-6.4-19.2-6.4-25.6 0s-6.4 19.2 0 25.6l108.8 102.4 153.6-156.8c6.4-6.4 6.4-19.2 0-25.6s-19.2-6.4-25.6 0z"  /></svg>
