<?xml version="1.0" standalone="no"?><!DOCTYPE svg PUBLIC "-//W3C//DTD SVG 1.1//EN" "http://www.w3.org/Graphics/SVG/1.1/DTD/svg11.dtd"><svg t="1560088733348" class="icon" style="" viewBox="0 0 1024 1024" version="1.1" xmlns="http://www.w3.org/2000/svg" p-id="3613" xmlns:xlink="http://www.w3.org/1999/xlink" width="16" height="16"><defs><style type="text/css"></style></defs><path d="M350.0032 579.7888c8.8064 0 16.384-2.4576 22.7328-8.8064l91.136-88.6784V739.328c0 3.8912 0 7.5776 2.4576 10.0352 2.4576 2.4576 6.3488 5.12 10.0352 5.12h39.3216c6.3488 0 12.6976-5.12 12.6976-11.4688v-262.144l93.5936 89.9072c12.6976 11.4688 32.9728 11.4688 44.2368 0 6.3488-6.3488 10.0352-13.9264 10.0352-21.504 0-8.8064-3.8912-16.384-10.0352-21.504l-146.8416-143.1552c-6.3488-6.3488-13.9264-8.8064-22.7328-8.8064s-16.384 3.8912-21.504 8.8064l-146.8416 143.1552c-6.3488 6.3488-10.0352 13.9264-10.0352 21.504 0 8.8064 3.8912 16.384 10.0352 21.504 5.12 6.3488 14.1312 9.0112 21.7088 9.0112z m0 0" p-id="3614"></path><path d="M1004.544 612.5568c-10.0352-26.624-25.3952-50.5856-45.6704-70.8608-30.3104-32.9728-74.752-55.7056-121.4464-63.2832 2.4576-27.8528 1.2288-58.1632-3.8912-88.6784-6.3488-34.2016-17.8176-67.1744-35.4304-96.256-16.384-29.0816-37.888-55.7056-63.2832-78.4384-51.8144-46.8992-118.9888-75.9808-187.392-82.3296-53.248-5.12-105.0624 1.2288-153.1904 19.0464-36.6592 13.9264-70.8608 34.2016-101.376 59.5968-32.9728 27.8528-58.1632 60.8256-77.2096 98.7136-17.8176 34.2016-27.8528 72.0896-31.744 110.1824C75.1616 448.1024-0.8192 546.816 4.3008 658.2272c2.4576 60.8256 30.3104 117.76 77.2096 160.768 46.8992 43.008 108.9536 65.7408 172.2368 65.7408l376.0128 3.8912 170.8032-1.2288c55.7056 0 107.52-20.2752 148.0704-55.7056 40.5504-35.4304 64.512-83.5584 68.4032-135.3728 1.4336-29.2864-2.4576-57.1392-12.4928-83.7632z m-226.7136-83.5584c6.3488 6.3488 15.1552 10.0352 23.9616 10.0352h3.8912c41.7792 0 78.4384 15.1552 107.52 45.6704 27.8528 27.8528 41.7792 65.7408 39.3216 106.2912-5.12 74.752-72.0896 132.9152-153.1904 132.9152H254.976c-99.9424 0-183.5008-74.752-187.392-167.1168-3.8912-89.9072 62.0544-165.888 151.9616-178.5856 16.384-1.2288 27.8528-15.1552 27.8528-31.744 0-72.0896 31.744-140.4928 88.6784-189.8496 48.128-43.008 111.4112-65.7408 174.6944-65.7408 10.0352 0 20.2752 0 29.0816 1.2288 116.5312 12.6976 211.3536 97.4848 231.6288 207.6672 6.3488 31.744 6.3488 64.512-1.2288 99.9424-2.4576 10.4448 0 19.2512 7.5776 29.2864z m0 0" p-id="3615"></path></svg>